<mxfile host="Electron" agent="Mozilla/5.0 (X11; Linux x86_64) AppleWebKit/537.36 (KHTML, like Gecko) draw.io/24.7.8 Chrome/128.0.6613.36 Electron/32.0.1 Safari/537.36" version="24.7.8">
  <diagram name="Page-1" id="l321otDXb3a5d7QTGbMu">
    <mxGraphModel dx="1382" dy="870" grid="1" gridSize="10" guides="1" tooltips="1" connect="1" arrows="1" fold="1" page="1" pageScale="1" pageWidth="850" pageHeight="1100" math="0" shadow="0">
      <root>
        <mxCell id="0" />
        <mxCell id="1" parent="0" />
        <mxCell id="sDLOA7K4N2pAYfdgFmOU-6" style="edgeStyle=orthogonalEdgeStyle;rounded=0;orthogonalLoop=1;jettySize=auto;html=1;exitX=1;exitY=0.5;exitDx=0;exitDy=0;entryX=0;entryY=0.5;entryDx=0;entryDy=0;fillColor=#ffe6cc;strokeColor=#d79b00;" edge="1" parent="1" source="sDLOA7K4N2pAYfdgFmOU-1" target="sDLOA7K4N2pAYfdgFmOU-2">
          <mxGeometry relative="1" as="geometry" />
        </mxCell>
        <mxCell id="sDLOA7K4N2pAYfdgFmOU-1" value="Start" style="ellipse;whiteSpace=wrap;html=1;aspect=fixed;fillColor=#ffe6cc;strokeColor=#d79b00;" vertex="1" parent="1">
          <mxGeometry x="80" y="200" width="80" height="80" as="geometry" />
        </mxCell>
        <mxCell id="sDLOA7K4N2pAYfdgFmOU-7" style="edgeStyle=orthogonalEdgeStyle;rounded=0;orthogonalLoop=1;jettySize=auto;html=1;exitX=1;exitY=0.5;exitDx=0;exitDy=0;entryX=0;entryY=0.5;entryDx=0;entryDy=0;fillColor=#ffe6cc;strokeColor=#d79b00;" edge="1" parent="1" source="sDLOA7K4N2pAYfdgFmOU-2" target="sDLOA7K4N2pAYfdgFmOU-3">
          <mxGeometry relative="1" as="geometry" />
        </mxCell>
        <mxCell id="sDLOA7K4N2pAYfdgFmOU-2" value="Configure" style="rounded=0;whiteSpace=wrap;html=1;fillColor=#ffe6cc;strokeColor=#d79b00;" vertex="1" parent="1">
          <mxGeometry x="210" y="210" width="120" height="60" as="geometry" />
        </mxCell>
        <mxCell id="sDLOA7K4N2pAYfdgFmOU-8" style="edgeStyle=orthogonalEdgeStyle;rounded=0;orthogonalLoop=1;jettySize=auto;html=1;exitX=1;exitY=0.5;exitDx=0;exitDy=0;entryX=0;entryY=0.5;entryDx=0;entryDy=0;fillColor=#ffe6cc;strokeColor=#d79b00;" edge="1" parent="1" source="sDLOA7K4N2pAYfdgFmOU-3" target="sDLOA7K4N2pAYfdgFmOU-4">
          <mxGeometry relative="1" as="geometry" />
        </mxCell>
        <mxCell id="sDLOA7K4N2pAYfdgFmOU-3" value="Run" style="rounded=0;whiteSpace=wrap;html=1;fillColor=#ffe6cc;strokeColor=#d79b00;" vertex="1" parent="1">
          <mxGeometry x="380" y="210" width="120" height="60" as="geometry" />
        </mxCell>
        <mxCell id="sDLOA7K4N2pAYfdgFmOU-9" style="edgeStyle=orthogonalEdgeStyle;rounded=0;orthogonalLoop=1;jettySize=auto;html=1;exitX=1;exitY=0.5;exitDx=0;exitDy=0;entryX=0;entryY=0.5;entryDx=0;entryDy=0;fillColor=#ffe6cc;strokeColor=#d79b00;" edge="1" parent="1" source="sDLOA7K4N2pAYfdgFmOU-4" target="sDLOA7K4N2pAYfdgFmOU-5">
          <mxGeometry relative="1" as="geometry" />
        </mxCell>
        <mxCell id="sDLOA7K4N2pAYfdgFmOU-4" value="Analyze" style="rounded=0;whiteSpace=wrap;html=1;fillColor=#ffe6cc;strokeColor=#d79b00;" vertex="1" parent="1">
          <mxGeometry x="550" y="210" width="120" height="60" as="geometry" />
        </mxCell>
        <mxCell id="sDLOA7K4N2pAYfdgFmOU-5" value="Next step" style="ellipse;whiteSpace=wrap;html=1;aspect=fixed;fillColor=#ffe6cc;strokeColor=#d79b00;" vertex="1" parent="1">
          <mxGeometry x="720" y="200" width="80" height="80" as="geometry" />
        </mxCell>
        <mxCell id="sDLOA7K4N2pAYfdgFmOU-10" value="Fluid mesh&lt;br&gt;(Copy 0.003/ dir)" style="text;html=1;align=left;verticalAlign=top;whiteSpace=wrap;rounded=0;" vertex="1" parent="1">
          <mxGeometry x="80" y="300" width="100" height="30" as="geometry" />
        </mxCell>
        <mxCell id="sDLOA7K4N2pAYfdgFmOU-11" value="0.orig/U&lt;div&gt;constant/transportProperties&lt;/div&gt;&lt;div&gt;system/controlDict&lt;/div&gt;&lt;div&gt;system/fvSchemes&lt;/div&gt;&lt;div&gt;system/fvSolution&lt;/div&gt;" style="text;html=1;align=left;verticalAlign=top;whiteSpace=wrap;rounded=0;" vertex="1" parent="1">
          <mxGeometry x="210" y="300" width="160" height="90" as="geometry" />
        </mxCell>
        <mxCell id="sDLOA7K4N2pAYfdgFmOU-12" value="run.sh&lt;div&gt;pyFoamPlotWatcher&lt;/div&gt;" style="text;html=1;align=left;verticalAlign=top;whiteSpace=wrap;rounded=0;" vertex="1" parent="1">
          <mxGeometry x="380" y="300" width="160" height="90" as="geometry" />
        </mxCell>
        <mxCell id="sDLOA7K4N2pAYfdgFmOU-13" value="plotCoefficients.py&lt;div&gt;reconstructPar&lt;br&gt;ParaView&lt;/div&gt;" style="text;html=1;align=left;verticalAlign=top;whiteSpace=wrap;rounded=0;" vertex="1" parent="1">
          <mxGeometry x="550" y="300" width="160" height="90" as="geometry" />
        </mxCell>
      </root>
    </mxGraphModel>
  </diagram>
</mxfile>
